#Comment line ignore any data following # character 
#Hierarchical Translation and Rotation (.htr) file 
[Header]	
#Header keywords are followed by a single value 
FileType HTR		#Single word string
DataType HTRS		#Translation followed by rotation and scale data
FileVersion 1		#integer
NumSegments 23		#integer
NumFrames 4		#integer
DataFrameRate 30		#integer, data frame rate in this file
EulerRotationOrder ZYX
CalibrationUnits mm
RotationUnits Degrees
GlobalAxisofGravity Y
BoneLengthAxis Y
ScaleFactor 1.00
[SegmentNames&Hierarchy]
#CHILD	PARENT
MASTER GLOBAL
weapon MASTER
arm_lock_bottom_part1 weapon
arm_lock_bottom_part2 weapon
arm_lock_bottom_part3 weapon
arm_lock_bottom_part4 weapon
arm_lock_top_part1 weapon
arm_lock_top_part2 weapon
arm_lock_top_part3 weapon
front_lower_left_part1 weapon
front_lower_right_part1 weapon
front_top_left_part weapon
front_top_right_part1 weapon
scope_part1 weapon
scope_part2 weapon
front_lower_left_part2 front_lower_left_part1
front_lower_left_part3 front_lower_left_part2
front_lower_right_part2 front_lower_right_part1
front_lower_right_part3 front_lower_right_part2
front_top_left_part2 front_top_left_part
front_top_left_part3 front_top_left_part2
front_top_right_part2 front_top_right_part1
front_top_right_part3 front_top_right_part2
[BasePosition]
#SegmentName Tx, Ty, Tz, Rx, Ry, Rz, BoneLength
MASTER 0.000000 0.000000 0.000000 -90.000000 0.000000 0.000000 10.000000 
weapon 0.000000 0.000000 0.000000 0.000000 0.000000 0.000000 10.000000 
arm_lock_bottom_part1 0.000000 0.000000 0.000000 0.000000 0.000000 0.000000 10.000000 
arm_lock_bottom_part2 0.000000 0.000000 0.000000 0.000000 0.000000 0.000000 10.000000 
arm_lock_bottom_part3 0.000000 0.000000 0.000000 0.000000 0.000000 0.000000 10.000000 
arm_lock_bottom_part4 0.000000 0.000000 0.000000 0.000000 0.000000 0.000000 10.000000 
arm_lock_top_part1 0.000000 0.000000 0.000000 0.000000 0.000000 0.000000 10.000000 
arm_lock_top_part2 0.000000 0.000000 0.000000 0.000000 0.000000 0.000000 10.000000 
arm_lock_top_part3 0.000000 0.000000 0.000000 0.000000 0.000000 0.000000 10.000000 
front_lower_left_part1 0.000000 0.000000 0.000000 0.000000 0.000000 0.000000 10.000000 
front_lower_right_part1 0.000000 0.000000 0.000000 0.000000 0.000000 0.000000 10.000000 
front_top_left_part 0.000000 0.000000 0.000000 0.000000 0.000000 0.000000 10.000000 
front_top_right_part1 0.000000 0.000000 0.000000 0.000000 0.000000 0.000000 10.000000 
scope_part1 0.000000 0.000000 0.000000 0.000000 0.000000 0.000000 10.000000 
scope_part2 0.000000 0.000000 0.000000 0.000000 0.000000 0.000000 10.000000 
front_lower_left_part2 0.000000 0.000000 0.000000 0.000000 0.000000 0.000000 10.000000 
front_lower_left_part3 0.000000 0.000000 0.000000 0.000000 0.000000 0.000000 10.000000 
front_lower_right_part2 0.000000 0.000000 0.000000 0.000000 0.000000 0.000000 10.000000 
front_lower_right_part3 0.000000 0.000000 0.000000 0.000000 0.000000 0.000000 10.000000 
front_top_left_part2 0.000000 0.000000 0.000000 0.000000 0.000000 0.000000 10.000000 
front_top_left_part3 0.000000 0.000000 0.000000 0.000000 0.000000 0.000000 10.000000 
front_top_right_part2 0.000000 0.000000 0.000000 0.000000 0.000000 0.000000 10.000000 
front_top_right_part3 0.000000 0.000000 0.000000 0.000000 0.000000 0.000000 10.000000 
#Beginning of Data. Separated by tabs
#Fr	Tx	Ty	Tz	Rx	Ry	Rz	SF
[MASTER]
30 0.000000 -0.000019 0.000002 0.002458 -0.000000 0.000000 0.000019
31 0.000000 -0.000019 0.000002 0.002458 -0.000000 0.000000 0.000019
32 0.000000 -0.000019 0.000002 0.002458 -0.000000 0.000000 0.000019
33 0.000000 -0.000019 0.000002 0.002458 -0.000000 0.000000 0.000019
[weapon]
30 10.182533 -168.978043 -13.084183 -0.002473 -0.000000 -0.000020 169.789444
31 10.182495 -168.977890 -13.084259 -0.002473 -0.000000 -0.000020 169.789307
32 10.182457 -168.977966 -13.084106 -0.002473 -0.000000 -0.000020 169.789368
33 10.182438 -168.978043 -13.084259 -0.002473 -0.000000 -0.000020 169.789444
[arm_lock_bottom_part1]
30 -48.820034 98.566185 -83.498901 179.998215 -0.001565 9.389185 138.096909
31 -48.820034 98.566185 -83.498901 179.998001 -4.900778 9.387950 138.096909
32 -48.820034 98.566185 -83.498901 179.998215 -0.001556 9.389185 138.096909
33 -48.820034 98.566185 -83.498901 179.998215 -0.001518 9.389182 138.096909
[arm_lock_bottom_part2]
30 -49.022778 58.781982 -78.526520 179.999649 -6.187132 6.577795 109.658417
31 -49.022778 58.781982 -78.526520 179.998245 -0.001609 6.578083 109.658417
32 -49.022778 58.781982 -78.526520 179.998245 -0.001562 6.578084 109.658417
33 -49.022778 58.781982 -78.526520 179.998245 -0.001562 6.578084 109.658417
[arm_lock_bottom_part3]
30 -51.266434 -16.798199 -66.920387 179.998291 -0.001596 4.325218 85.957924
31 -51.266434 -16.798199 -66.920387 179.998291 -0.001596 4.325218 85.957924
32 -51.266434 -16.798199 -66.920387 179.998291 -0.001596 4.325218 85.957924
33 -51.266434 -16.798199 -66.920387 179.998291 -0.001596 4.325218 85.957924
[arm_lock_bottom_part4]
30 -40.078083 -93.503029 -59.330029 -179.999222 -7.951346 1.320369 117.767235
31 -40.078083 -93.503029 -59.330029 -179.999222 -7.951346 1.320369 117.767235
32 -40.078083 -93.503029 -59.330029 -179.999222 -7.951346 1.320369 117.767235
33 -40.078083 -93.503029 -59.330029 -179.999222 -7.951346 1.320369 117.767235
[arm_lock_top_part1]
30 -47.532562 61.554470 78.379471 -0.001739 8.389319 -9.998510 110.415756
31 -47.532562 61.554470 78.379471 0.001509 0.001862 -10.001318 110.415756
32 -47.532562 61.554470 78.379471 0.001509 0.001798 -10.001317 110.415756
33 -47.532562 61.554470 78.379471 0.001509 0.001798 -10.001317 110.415756
[arm_lock_top_part2]
30 -45.622692 13.709888 63.393517 0.001544 0.001768 -7.724405 79.297722
31 -45.622692 13.709888 63.393517 0.001544 0.001768 -7.724405 79.297722
32 -45.622692 13.709888 63.393517 0.001544 0.001768 -7.724405 79.297722
33 -45.622692 13.709888 63.393517 0.001544 0.001768 -7.724405 79.297722
[arm_lock_top_part3]
30 -43.788521 -73.747162 72.061607 0.001593 0.001724 -4.534721 112.022110
31 -43.788521 -73.747162 72.061607 0.001593 0.001724 -4.534721 112.022110
32 -43.788521 -73.747162 72.061607 0.001593 0.001724 -4.534721 112.022110
33 -43.788521 -73.747162 72.061607 0.001593 0.001724 -4.534721 112.022110
[front_lower_left_part1]
30 -46.798580 475.070923 -43.538815 0.000000 0.000003 -0.000000 479.351746
31 -46.798580 475.070923 -43.538815 0.000000 0.000003 -0.000000 479.351746
32 -46.798580 475.070923 -43.538815 0.000000 0.000003 -0.000000 479.351746
33 -46.798580 475.070923 -43.538815 0.000000 0.000003 -0.000000 479.351746
[front_lower_right_part1]
30 26.433397 475.070923 -43.538826 0.000000 -0.000000 -0.000000 477.793640
31 26.433397 475.070923 -43.538826 0.000000 -0.000000 -0.000000 477.793640
32 26.433397 475.070923 -43.538826 0.000000 -0.000000 -0.000000 477.793640
33 26.433397 475.070923 -43.538826 0.000000 -0.000000 -0.000000 477.793640
[front_top_left_part]
30 -47.897255 494.788696 7.031011 -0.000000 0.000003 -0.000001 497.151367
31 -47.897255 494.788696 7.031011 -0.000000 0.000003 -0.000001 497.151367
32 -47.897255 494.788696 7.031011 -0.000000 0.000003 -0.000001 497.151367
33 -47.897255 494.788696 7.031011 -0.000000 0.000003 -0.000001 497.151367
[front_top_right_part1]
30 27.532097 494.788727 7.031008 0.000000 -0.000000 -0.000000 495.604004
31 27.532097 494.788727 7.031008 0.000000 -0.000000 -0.000000 495.604004
32 27.532097 494.788727 7.031008 0.000000 -0.000000 -0.000000 495.604004
33 27.532097 494.788727 7.031008 0.000000 -0.000000 -0.000000 495.604004
[scope_part1]
30 -10.754304 87.338959 156.453140 -9.974404 60.434151 -8.697628 179.503021
31 -10.754304 87.338959 156.453140 -10.990145 63.357601 -9.847285 179.503021
32 -10.754304 87.338959 156.453140 -12.311768 66.364365 -11.305630 179.503021
33 -10.754304 87.338959 156.453140 -14.031461 69.353745 -13.160557 179.503021
[scope_part2]
30 -10.754300 82.597374 156.860001 -29.562019 80.017883 -29.186403 177.603607
31 -10.754300 82.597374 156.860001 -43.875877 82.915649 -43.655136 177.603607
32 -10.754300 82.597374 156.860001 -73.496010 84.886185 -73.432983 177.603607
33 -10.754300 82.597374 156.860001 -115.004379 84.589340 -115.102417 177.603607
[front_lower_left_part2]
30 -55.193569 141.618454 32.268322 0.001886 0.001397 16.927948 155.381348
31 -55.193569 141.618454 32.268322 0.001886 0.001397 16.927948 155.381348
32 -55.193569 141.618454 32.268322 0.001886 0.001397 16.927948 155.381348
33 -55.193569 141.618454 32.268322 0.001886 0.001397 16.927948 155.381348
[front_lower_left_part3]
30 -10.943815 108.509422 -11.124855 29.345993 -22.917826 -1.512621 109.625839
31 -10.943815 108.509422 -11.124855 29.840998 -22.238163 -2.805593 109.625839
32 -10.943815 108.509422 -11.124855 30.306072 -21.573193 -4.040412 109.625839
33 -10.943815 108.509422 -11.124855 30.737579 -20.921532 -5.230295 109.625839
[front_lower_right_part2]
30 55.193596 141.618317 32.268330 0.001480 0.001822 -11.824665 155.381226
31 55.193596 141.618317 32.268330 0.001480 0.001822 -11.824665 155.381226
32 55.193596 141.618317 32.268330 0.001480 0.001822 -11.824665 155.381226
33 55.193596 141.618317 32.268330 0.001480 0.001822 -11.824665 155.381226
[front_lower_right_part3]
30 10.943837 108.509453 -11.124846 29.155048 23.170950 1.024823 109.625862
31 10.943837 108.509453 -11.124846 29.436747 22.796135 1.750500 109.625862
32 10.943837 108.509453 -11.124846 29.718761 22.414112 2.472196 109.625862
33 10.943837 108.509453 -11.124846 29.986160 22.034960 3.189658 109.625862
[front_top_left_part2]
30 -68.606697 132.667831 55.914677 11.079756 0.000004 13.726176 159.480667
31 -68.606697 132.667831 55.914673 11.079756 0.000004 13.726176 159.480652
32 -68.606697 132.667831 55.914669 11.079756 0.000004 13.726176 159.480652
33 -68.606697 132.667831 55.914665 11.079756 0.000004 13.726176 159.480652
[front_top_left_part3]
30 -28.216480 149.656799 49.959614 -25.398531 -6.317427 -71.588623 160.278793
31 -28.216480 149.656799 49.959614 -25.453846 -6.070497 -71.061142 160.278793
32 -28.216480 149.656799 49.959614 -25.506832 -5.826399 -70.548180 160.278793
33 -28.216480 149.656799 49.959614 -25.554789 -5.589008 -70.048477 160.278793
[front_top_right_part2]
30 62.566154 124.344589 58.663284 14.077118 -1.062711 -17.004618 151.054550
31 62.566154 124.344589 58.663280 14.077118 -1.062711 -17.004618 151.054550
32 62.566162 124.344582 58.663280 14.077118 -1.062711 -17.004618 151.054550
33 62.566162 124.344582 58.663277 14.077118 -1.062711 -17.004618 151.054550
[front_top_right_part3]
30 28.216452 149.656952 49.959507 -24.723932 8.709850 76.737122 160.278885
31 28.216452 149.656952 49.959507 -24.723932 8.709850 76.737122 160.278885
32 28.216452 149.656952 49.959507 -24.723932 8.709850 76.737122 160.278885
33 28.216452 149.656952 49.959507 -24.723932 8.709850 76.737122 160.278885
